<svg xmlns="http://www.w3.org/2000/svg" viewBox="0 0 512 512" width="512" height="512" role="img" aria-label="Vocab Trainer">
  <title>Vocab Trainer</title>
  <rect width="512" height="512" fill="#0b1120" />
  <rect x="96" y="96" width="62" height="62" rx="16" fill="#6ea8fe" fill-opacity="0.45" />
  <rect x="182" y="96" width="62" height="62" rx="16" fill="#22304e" />
  <rect x="268" y="96" width="62" height="62" rx="16" fill="#22304e" />
  <rect x="354" y="96" width="62" height="62" rx="16" fill="#22304e" />
  <rect x="96" y="182" width="62" height="62" rx="16" fill="#6ea8fe" />
  <rect x="182" y="182" width="62" height="62" rx="16" fill="#6ea8fe" fill-opacity="0.45" />
  <rect x="268" y="182" width="62" height="62" rx="16" fill="#22304e" />
  <rect x="354" y="182" width="62" height="62" rx="16" fill="#22304e" />
  <rect x="96" y="268" width="62" height="62" rx="16" fill="#6ea8fe" />
  <rect x="182" y="268" width="62" height="62" rx="16" fill="#6ea8fe" />
  <rect x="268" y="268" width="62" height="62" rx="16" fill="#e8edf7" />
  <rect x="354" y="268" width="62" height="62" rx="16" fill="#22304e" />
  <rect x="96" y="354" width="62" height="62" rx="16" fill="#6ea8fe" />
  <rect x="182" y="354" width="62" height="62" rx="16" fill="#6ea8fe" />
  <rect x="268" y="354" width="62" height="62" rx="16" fill="#6ea8fe" />
  <rect x="354" y="354" width="62" height="62" rx="16" fill="#6ea8fe" fill-opacity="0.45" />
</svg>
